<svg enable-background="new 0 0 512 512" viewBox="0 0 512 512" xmlns="http://www.w3.org/2000/svg"><g id="_x30_4_Laugh"><g><path d="m432.752 432.789c-97.621 97.621-255.92 97.573-353.538-.046s-97.617-255.868.004-353.489 255.92-97.672 353.538-.053 97.616 255.967-.004 353.588z" fill="#fcc517"/><path d="m432.752 432.789c-97.621 97.621-255.92 97.573-353.538-.046s-97.617-255.868.004-353.489 255.92-97.672 353.538-.053 97.616 255.967-.004 353.588z" fill="#fcc517"/><path d="m432.734 432.821c-97.596 97.596-255.91 97.548-353.553-.095-55.634-55.634-79.575-131.015-71.725-203.631 5.824 54.697 29.815 107.912 71.726 149.822 97.643 97.643 255.957 97.691 353.602.045 41.961-41.961 65.904-95.127 71.779-149.873 7.799 72.666-16.144 148.047-71.829 203.732z" fill="#fcac02"/><g><g><path d="m352.169 317.755-28.434-83.879c-2.355-6.946 4.277-13.577 11.223-11.223l81.602 27.662c5.238 1.776 8.045 7.462 6.269 12.7-1.776 5.238-7.461 8.044-12.699 6.269l-60.156-20.391 21.163 62.432c1.775 5.238-1.031 10.923-6.269 12.699-5.238 1.777-10.924-1.03-12.699-6.269z" fill="#7c5208"/></g><g><path d="m194.257 159.844 83.879 28.434c6.946 2.355 13.577-4.277 11.223-11.223l-27.662-81.602c-1.776-5.238-7.462-8.045-12.7-6.269-5.238 1.776-8.044 7.461-6.269 12.699l20.391 60.156-62.432-21.163c-5.238-1.775-10.923 1.031-12.699 6.269-1.776 5.237 1.031 10.923 6.269 12.699z" fill="#7c5208"/></g></g><path d="m390.737 388.494c0 8.569-6.941 15.51-15.51 15.51-8.55 0-15.51-6.941-15.51-15.51s15.51-48.468 15.51-48.468 15.51 39.899 15.51 48.468z" fill="#28b1e0"/><path d="m123.518 121.276c-8.569 0-15.51 6.941-15.51 15.51 0 8.55 6.941 15.51 15.51 15.51s48.468-15.51 48.468-15.51-39.899-15.51-48.468-15.51z" fill="#28b1e0"/><path d="m128.193 197.907c-47.098 47.098-43.663 126.895 7.673 178.231 51.336 51.336 131.133 54.772 178.232 7.673l6.294-6.294-185.905-185.904z" fill="#05052d"/><path d="m99.758 246.582c-12.351 43.055-.086 93.362 36.109 129.557 36.195 36.195 86.502 48.46 129.557 36.109-33.936-76.509-89.158-131.731-165.666-165.666z" fill="#ea0707"/></g></g><g id="Layer_1"/></svg>